<mxfile host="app.diagrams.net" modified="2023-11-26T20:20:15.737Z" agent="Mozilla/5.0 (Macintosh; Intel Mac OS X 10_15_7) AppleWebKit/537.36 (KHTML, like Gecko) Chrome/118.0.0.0 Safari/537.36" version="22.1.4" etag="vOzgDqrWv_aBjBappd6E" type="github">
  <diagram name="Page-1" id="QrUAsVWPGcIq_63rxCye">
    <mxGraphModel>
      <root>
        <mxCell id="0" />
        <mxCell id="1" parent="0" />
      </root>
    </mxGraphModel>
  </diagram>
</mxfile>
